PathFileType	4	(X/Y/Z)	C:/Users/beibeiliu/ov580/test_trc/User1\sequence.37_training_dense_right.trc
DataRate	CameraRate	NumFrames	NumMarkers	Units	OrigDataRate	OrigDataStartFrame	OrigNumFrames
120	120	20	19	mm	120	122	243
Frame#	Time	ThumbCMC			ThumbMCP			ThumbIP			ThumbTip			IndexMCP			IndexPIP			IndexTip			MiddleMCP			MiddlePIP			MiddleTip			RingMCP			RingPIP			RingTip			PinkyMCP			PinkyPIP			PinkyTip			BackHand1			BackHand2			BackHand3	
		X0	Y0	Z0	X1	Y1	Z1	X2	Y2	Z2	X3	Y3	Z3	X4	Y4	Z4	X5	Y5	Z5	X6	Y6	Z6	X7	Y7	Z7	X8	Y8	Z8	X9	Y9	Z9	X10	Y10	Z10	X11	Y11	Z11	X12	Y12	Z12	X13	Y13	Z13	X14	Y14	Z14	X15	Y15	Z15	X16	Y16	Z16	X17	Y17	Z17	X18	Y18	Z18	
121	1.00833	196.395	-23.6019	59.7911	184.753	-12.4168	30.7629	180.163	-25.2248	-0.110191	166.448	-42.6173	-16.316	194.598	-65.3815	-15.522	159.438	-67.9997	-21.6506	139.453	-64.8306	6.5685	193.946	-90.7121	-10.7984	158.908	-89.1316	-16.7283	138.135	-77.6178	18.6917	188.149	-110.228	0.696359	152.698	-105.494	-0.713785	138.238	-87.2092	21.9837	184.948	-123.072	20.5338	159.865	-113.813	12.6785	144.873	-89.3404	30.6189	221.887	-91.7865	51.6817	219.649	-82.5639	86.5321	222.261	-57.3344	57.0343	
122	1.01667	197.5	-23.6872	58.611	183.891	-13.4791	28.3172	177.872	-25.0946	1.39931	166.875	-45.6941	-14.993	193.159	-63.9791	-17.366	159.896	-68.2313	-21.583	141.036	-63.4448	1.12042	194.976	-89.3293	-11.2646	159.719	-90.4337	-15.4184	137.919	-75.2082	15.559	186.424	-110.355	-0.223275	152.702	-103.563	-2.0314	138.857	-88.1077	24.5227	183.63	-120.316	17.8821	160.249	-113.565	12.543	146.213	-89.7037	34.5779	222.287	-95.8218	52.3039	218.884	-84.2684	90.6602	223.893	-53.1324	60.4195	
123	1.025	196.734	-24.5483	60.5271	182.767	-15.9898	25.5648	175.924	-25.6832	3.30719	160.886	-41.4168	-20.4595	195.145	-64.2743	-16.7444	163.466	-67.5617	-23.3022	139.251	-62.5201	5.80899	193.069	-91.5169	-11.3119	157.572	-87.399	-15.1729	138.246	-73.4032	13.3088	185.241	-109.963	-1.85195	152.97	-101.51	-2.31071	141	-87.3863	23.3037	184.203	-125.008	21.4776	154.518	-112.474	15.9722	145.938	-88.1159	34.0657	220.577	-97.6371	54.8095	219.715	-84.3771	90.1176	222.84	-55.8909	60.5954	
124	1.03333	196.049	-28.7293	58.1452	180.855	-19.59	28.9073	172.169	-26.4594	0.597423	160.384	-42.2046	-18.6286	193.375	-66.238	-17.6333	162.394	-68.5245	-21.7321	140.433	-59.8988	1.9678	190.65	-89.3607	-14.2034	158.821	-89.9447	-15.4222	137.986	-73.4518	16.301	184.018	-111.904	1.31833	151.445	-103.741	-0.489275	142.096	-82.9393	25.3673	179.15	-125.821	20.23	153.582	-111.575	17.3194	149.699	-87.1303	34.2228	218.313	-96.1456	53.1069	218.679	-81.6646	89.1032	223.151	-55.6561	59.1001	
125	1.04167	195.834	-28.3367	58.2635	177.885	-21.232	25.71	169.657	-27.6432	1.60152	158.368	-40.0186	-22.3283	195.398	-66.7057	-15.2126	163.727	-68.0815	-23.0457	139.476	-59.4761	3.73437	190.864	-93.8276	-10.7689	154.228	-84.5026	-14.5304	139.587	-71.1596	20.8372	182.964	-109.049	0.276994	148.294	-101.718	3.65976	143.254	-83.0147	26.2139	181.369	-121.805	22.2575	155.988	-112.512	15.5468	150.443	-87.3756	34.9819	220.092	-99.8928	54.075	217.795	-85.8059	87.8036	222.918	-57.6843	57.6516	
126	1.05	194.108	-30.8184	56.1917	175.744	-24.716	27.7363	167.719	-28.021	-0.0133278	156.236	-37.8155	-19.6545	194.043	-65.8836	-15.8984	159.091	-71.3585	-19.8629	138.931	-64.2915	6.28482	187.423	-94.9984	-12.1914	152.995	-87.9042	-10.7375	141.69	-73.6903	22.623	179.477	-113.098	1.37013	149.266	-101.632	3.85606	143.784	-84.6064	33.4968	179.57	-125.151	23.0872	151.578	-113.726	20.1264	151.856	-86.4445	38.8313	220.003	-97.2078	52.1667	218.99	-87.9666	88.7135	224.985	-59.0982	56.4852	
127	1.05833	193.609	-30.7346	54.9378	174.751	-30.0918	25.8171	164.688	-30.391	1.96898	154.213	-37.0689	-21.5368	191.112	-71.2518	-15.3441	157.42	-69.2694	-20.6526	138.034	-61.0062	7.98872	187.831	-92.6191	-12.1091	151.269	-88.5672	-7.47259	144.089	-70.904	26.5335	180.141	-109.9	1.17128	145.544	-100.822	8.12191	144.517	-86.1785	34.8745	175.467	-127.124	20.0111	150.883	-110.262	22.2702	151.995	-87.04	43.3557	218.122	-100.212	51.4245	217.385	-83.6507	89.0255	221.217	-60.9378	59.4813	
128	1.06667	191.84	-28.1638	54.8459	171.853	-28.9747	28.413	163.092	-33.1375	0.650587	151.393	-36.4483	-24.9945	189.879	-69.585	-17.2315	159.429	-74.4604	-19.4122	139.792	-64.8157	7.88157	188.628	-93.9939	-9.68061	150.693	-86.846	-8.54042	146.363	-70.1836	28.202	177.998	-110.502	0.230537	145.743	-100.162	8.13418	146.952	-82.4853	36.8209	174.954	-128.068	21.479	152.652	-112.152	19.6471	155.058	-88.767	39.5444	217.465	-100.501	49.869	219.903	-87.5881	86.9976	220.784	-60.505	58.7324	
129	1.075	190.912	-33.4421	52.7297	171.151	-31.506	24.9287	161.123	-32.0072	-0.866535	148.917	-35.6408	-22.2347	187.189	-74.5771	-17.1343	157.55	-73.7457	-19.3951	139.866	-65.5107	10.138	185.265	-95.4245	-12.5286	150.227	-90.7596	-5.4563	148.707	-69.2097	28.7275	179.369	-112.086	3.02448	147.883	-104.37	8.1287	147.716	-84.7373	39.3548	180.243	-125.427	23.2316	150.341	-113.233	25.6289	155.29	-90.911	46.8578	218.261	-99.1122	51.5644	217.876	-83.7992	87.8062	222.301	-59.2774	56.4787	
130	1.08333	190.749	-33.4834	55.6297	169.392	-30.8861	23.2329	161.288	-36.801	-1.68186	149.223	-39.3654	-20.8857	189.382	-73.2057	-15.1831	157.716	-73.2971	-18.0785	140.16	-68.664	12.6286	184.051	-99.8278	-9.14094	150.901	-90.1189	-2.65799	149.804	-73.2233	29.3035	178.271	-114.282	5.52358	147.203	-102.117	12.4395	149.647	-83.155	41.8153	178.14	-124.877	22.5111	152.54	-115.508	24.9397	157.093	-88.1848	47.6217	219.912	-97.4403	51.3834	218.098	-88.6614	88.771	221.104	-61.4246	56.7137	
131	1.09167	191.306	-35.3352	53.644	168.792	-32.3448	28.7881	159.389	-35.9985	-1.72952	149.313	-38.1376	-19.088	191.192	-69.532	-14.3068	158.295	-75.4852	-17.7319	140.49	-65.2656	10.9684	188.724	-98.1218	-6.01581	151.297	-90.0198	-0.828709	153.088	-75.0387	34.7603	180.684	-114.461	8.01842	148.254	-102.705	13.6068	152.881	-84.9982	44.131	179.513	-127.251	24.2667	153.403	-111.923	27.9158	157.264	-89.5537	49.1352	219.14	-97.0181	54.2088	221.641	-88.1793	85.4469	222.801	-62.378	55.6408	
132	1.1	188.781	-30.3248	56.4105	167.921	-31.2625	27.7664	160.2	-36.4132	-2.45338	150.678	-40.9604	-19.2868	191.311	-74.8846	-12.0504	158.312	-79.1714	-14.8251	138.846	-64.1547	14.9863	189.53	-95.5723	-8.62414	151.499	-91.6358	-1.02742	152.449	-76.363	32.5025	179.818	-114.188	7.23323	149.767	-103.549	12.6267	154.083	-82.8973	42.0503	182.051	-128.046	26.4386	154.316	-110.9	28.2111	161.972	-90.7697	47.2099	221.53	-99.5079	55.4347	219.502	-88.8336	90.133	223.311	-59.0631	60.1495	
133	1.10833	188.242	-30.278	55.5931	169.153	-36.5957	24.3833	160.983	-39.9849	1.27596	150.907	-40.26	-20.0225	189.045	-71.5316	-15.9951	156.659	-76.382	-15.2899	140.242	-69.3231	17.3963	186.639	-99.9572	-7.15569	154.498	-91.5486	-4.96035	152.899	-76.6836	33.0871	181.057	-115.862	8.21598	149.406	-106.511	15.7357	152.864	-88.7802	44.1397	178.961	-130.066	25.4827	152.49	-113.021	30.3731	161.481	-91.2827	46.2514	219.674	-98.7142	53.3337	221.421	-84.648	84.5323	221.567	-58.1679	57.0887	
134	1.11667	189.136	-34.5411	56.5968	168.563	-36.3318	27.8409	160.067	-35.5962	-2.6888	151.888	-36.116	-22.6782	190.819	-75.0049	-14.6202	158.065	-76.1048	-18.0136	140.253	-66.6059	14.7396	187.744	-96.8748	-9.53148	152.481	-92.5878	-2.65379	154.754	-74.635	35.8103	181.416	-113.64	5.82875	150.248	-104.989	13.5848	155.512	-82.48	43.5817	183.073	-127.865	25.7558	155.555	-110.826	28.2408	162.064	-89.7613	47.1343	221.628	-96.1282	55.1705	218.828	-84.3333	89.5965	222.522	-61.148	60.2957	
135	1.125	189.613	-32.7927	53.6182	168.662	-32.124	25.7213	162.117	-34.0071	-3.06497	154.858	-35.442	-21.6087	191.424	-71.212	-15.0709	157.944	-80.0211	-15.5807	140.93	-70.1351	14.2646	185.668	-99.5421	-8.78207	152.339	-93.6726	-3.14402	149.007	-76.0784	30.5253	178.579	-114.104	4.92351	148.601	-102.879	14.9922	151.485	-87.1963	41.2705	181.405	-126.966	25.6375	153.118	-112.518	28.8959	159.475	-89.5518	49.1868	219.793	-98.892	52.109	221.08	-84.0017	89.019	221.297	-61.1449	55.4182	
136	1.13333	189.366	-31.4109	56.7502	172.526	-34.8887	26.6972	166.532	-35.2922	0.277351	159.629	-33.1704	-21.8677	193.007	-75.7421	-12.8848	159.047	-76.2617	-19.03	141.591	-67.4847	14.5464	187.202	-99.2271	-7.89263	154.566	-92.9269	-7.68401	146.327	-77.2752	27.9778	182.156	-116.715	7.41505	150.313	-106.882	11.9816	148.678	-86.6301	40.8753	181.658	-127.731	24.613	153.482	-113.907	27.443	158.926	-88.3781	45.6898	221.035	-99.4625	52.956	218.441	-87.328	90.5883	223.27	-61.8053	57.0983	
137	1.14167	190.775	-28.8628	56.7912	175.711	-29.0627	25.5915	171.388	-27.8779	-2.84785	162.121	-31.3052	-21.1058	191.454	-73.9849	-16.2723	160.258	-75.61	-19.6345	140.278	-66.112	7.44841	188.891	-97.7047	-8.71881	151.913	-90.3527	-8.49732	143.653	-74.772	23.6222	181.554	-116.371	3.92685	148.473	-104.098	8.18963	146.607	-84.7014	36.1764	179.964	-126.198	22.2864	154.416	-114.498	22.6261	154.011	-90.9772	46.694	220.598	-100.908	56.5219	221.259	-82.871	87.2702	222.472	-58.2954	56.02	
138	1.15	193.403	-26.966	56.6945	178.731	-22.6926	27.1618	173.665	-23.9346	-1.91171	163.067	-29.8005	-25.6898	193.213	-73.5504	-16.2578	160.093	-74.5817	-21.8089	140.545	-68.253	4.6089	190.235	-96.7327	-11.1973	153.931	-91.0174	-10.4232	140.686	-80.7284	19.4741	186.35	-114.312	5.17574	149.889	-108.272	5.72197	143.891	-86.3014	30.5833	182.083	-126.119	22.186	156.032	-114.622	19.4335	150.542	-89.3464	40.8196	222.039	-96.8586	53.5341	220.951	-85.6592	88.1793	221.647	-58.164	59.901	
139	1.15833	194.337	-28.6541	59.6033	181.486	-24.0227	27.53	174.285	-23.8216	-0.942667	163.734	-36.127	-19.8098	194.794	-68.1032	-17.4446	161.591	-72.7446	-23.184	140.964	-67.2119	-0.803862	192.961	-94.7186	-11.4089	155.532	-92.3798	-12.9719	138.959	-81.529	16.615	188.182	-111.198	3.95918	154.367	-109.49	1.23796	142.089	-89.0211	29.0679	182.379	-127.52	23.8007	158.52	-117.165	16.5862	148.27	-90.0327	35.9967	221.026	-94.818	54.2181	221.603	-83.3032	89.5663	222.913	-58.3459	60.3491	
140	1.16667	196.084	-27.3741	58.0537	180.911	-16.1912	27.7892	173.183	-22.4719	2.8342	162.725	-39.2059	-18.8388	196.597	-66.618	-14.8696	161.692	-75.0374	-22.2733	138.706	-64.8898	-1.30754	195.411	-92.6436	-9.76826	157.042	-91.1726	-16.295	136.453	-82.2956	14.0991	187.282	-115.03	3.44622	154.277	-107.365	-1.72342	139.501	-91.1332	27.1478	186.316	-125.146	26.1453	159.973	-117.984	14.7836	147.36	-88.282	33.2708	218.584	-96.6336	58.9952	219.537	-82.693	87.875	222.648	-53.8971	58.9314	
